<svg xmlns="http://www.w3.org/2000/svg" xmlns:xlink="http://www.w3.org/1999/xlink" version="1.1" width="1080" height="1080" viewBox="0 0 1080 1080" xml:space="preserve">
<desc>Created with Fabric.js 5.2.4</desc>
<defs>
</defs>
<g transform="matrix(1 0 0 1 540 540)" id="b53bad49-cbe5-4457-a434-af36da6da6d0"  >
<rect style="stroke: none; stroke-width: 1; stroke-dasharray: none; stroke-linecap: butt; stroke-dashoffset: 0; stroke-linejoin: miter; stroke-miterlimit: 4; fill: rgb(255,255,255); fill-rule: nonzero; opacity: 1; visibility: hidden;" vector-effect="non-scaling-stroke"  x="-540" y="-540" rx="0" ry="0" width="1080" height="1080" />
</g>
<g transform="matrix(1 0 0 1 540 540)" id="3e35d539-2079-455e-88ee-e646d162ddfc"  >
</g>
<g transform="matrix(45 0 0 45 540 540)" id="SVGRepo_iconCarrier"  >
<path style="stroke: none; stroke-width: 1; stroke-dasharray: none; stroke-linecap: butt; stroke-dashoffset: 0; stroke-linejoin: miter; stroke-miterlimit: 4; fill: rgb(255,255,255); fill-rule: evenodd; opacity: 1;"  transform=" translate(-11.5, -12.5)" d="M 20.5 4 C 19.1193 4 18 5.11929 18 6.5 L 18 18.5 C 18 19.8807 19.1193 21 20.5 21 C 21.8807 21 23 19.8807 23 18.5 L 23 6.5 C 23 5.11929 21.8807 4 20.5 4 Z M 20 6.5 C 20 6.22386 20.2239 6 20.5 6 C 20.7761 6 21 6.22386 21 6.5 L 21 18.5 C 21 18.7761 20.7761 19 20.5 19 C 20.2239 19 20 18.7761 20 18.5 L 20 6.5 Z M 14.5 8 C 13.1193 8 12 9.11929 12 10.5 L 12 18.5 C 12 19.8807 13.1193 21 14.5 21 C 15.8807 21 17 19.8807 17 18.5 L 17 10.5 C 17 9.11929 15.8807 8 14.5 8 Z M 14 10.5 C 14 10.2239 14.2239 10 14.5 10 C 14.7761 10 15 10.2239 15 10.5 L 15 18.5 C 15 18.7761 14.7761 19 14.5 19 C 14.2239 19 14 18.7761 14 18.5 L 14 10.5 Z M 6 14.5 C 6 13.1193 7.11929 12 8.5 12 C 9.88071 12 11 13.1193 11 14.5 L 11 18.5 C 11 19.8807 9.88071 21 8.5 21 C 7.11929 21 6 19.8807 6 18.5 L 6 14.5 Z M 0 18.5 C 0 17.1193 1.11929 16 2.5 16 C 3.88071 16 5 17.1193 5 18.5 C 5 19.8807 3.88071 21 2.5 21 C 1.11929 21 0 19.8807 0 18.5 Z" stroke-linecap="round" />
</g>
<g transform="matrix(1 0 0 6.68 678.6 631.03)" id="2698a9db-dcee-4316-8cb7-7b70838c6369"  >
<rect style="stroke: rgb(0,0,0); stroke-width: 0; stroke-dasharray: none; stroke-linecap: butt; stroke-dashoffset: 0; stroke-linejoin: miter; stroke-miterlimit: 4; fill: rgb(255,255,255); fill-rule: nonzero; opacity: 1;" vector-effect="non-scaling-stroke"  x="-33.0835" y="-33.0835" rx="0" ry="0" width="66.167" height="66.167" />
</g>
</svg>